<svg xmlns="http://www.w3.org/2000/svg" xmlns:xlink="http://www.w3.org/1999/xlink" viewBox="0 0 599.57 569.57"><defs><clipPath id="a" transform="translate(-91.43 -140)"><rect x="156.56" y="181.98" width="185.39" height="137.54" fill="none"/></clipPath><clipPath id="b" transform="translate(-91.43 -140)"><rect x="266.52" y="682.97" width="343.43" height="26.6" fill="none"/></clipPath></defs><title>brand</title><path d="M551.88,180c-137.47-82.6-333.37-8.46-415.65,120.76-51.8,81.35-46.86,173.32-19,256.63,14.32,18.91,29.44,37.41,43.16,55.14C125,514.76,129.52,398,201.29,313.39,288.51,210.61,468,163.48,570,252.1c70.27,61.1,109.38,191.69,41.57,279.37-57.89,74.84-181.86,103.12-256.62,43.26-50.06-40.09-84.4-124.76-45.18-191,33.13-56,112.77-88.8,171.68-57.68,41.38,21.87,79.94,79.19,57.83,129.77C522.46,494.13,475.11,518.7,432.61,508c-37.87-9.5-72.55-47.11-66.87-81.1,3.65-21.84,22.64-34.36,25.3-36.05,17.64-11.26,44.39-14.34,63.25,0,12.62,9.59,23.91,28.65,18.07,41.45-8.08,17.74-43.84,12-45.18,21.63-1.06,7.69,20.23,22.14,37.95,18,24-5.57,39.43-44.64,30.73-73.89-10.13-34.06-52.25-52.35-86.75-46.86-41.43,6.58-67,46.67-70.48,81.1-5.23,51.94,39.2,97.6,83.13,108.14,67.18,16.12,145.93-46.79,150-120.76C575.43,353,517.1,301.07,463.33,286.35c-79.88-21.88-160.57,35.46-191.56,102.74-2.84,6.16-36.5,82.58,5.42,156.8,42.58,75.39,128,86.21,144.57,88.32C522.2,646.93,634.89,583.79,673,481c44.84-121-32.17-247.56-121.08-301" transform="translate(-91.43 -140)" fill="#d12027"/><path d="M176,641,156.4,615.62c-5.63-7.27-11.5-14.67-17.45-22.19-8.5-10.72-17.28-21.81-25.75-33l-.5-.66-.26-.78C79,458.81,85.53,371,132,298.06,213.77,169.61,411.84,90,554.47,175.69h0c95.27,57.25,167.41,187.75,123.21,307.06C640.2,584,527.48,652.68,421.13,639.2c-67.39-8.53-120.06-40.79-148.33-90.83C230,472.59,263.26,395.52,267.19,387c32.09-69.65,114.7-128.16,197.47-105.49C521.85,297.15,580.59,351,576.79,420c-2.1,38.07-23.62,75.9-57.57,101.18-30.89,23-66.84,31.83-98.63,24.2-46.41-11.13-92.42-59.42-87-113.54,3.66-36.32,31.08-78.65,74.7-85.58,35.67-5.68,81.31,13.22,92.36,50.4,5.38,18.06,2.38,40.87-7.64,58.09-6.91,11.88-16.41,19.75-26.76,22.15-13.57,3.15-29.27-3.06-37.77-10.82-4.7-4.3-6.88-8.72-6.32-12.8,1.08-7.77,10.31-9.47,20.07-11.27s22-4.07,25.52-11.76c4.54-10-5.07-26.64-16.54-35.35-17.12-13-41.87-9.73-57.49.23-3.29,2.1-19.85,13.55-23,32.63-5.38,32.2,29.51,67,63.12,75.39,39.33,9.87,84.55-12.29,100.78-49.4C556.38,404,516.33,350.16,479,330.46c-57.54-30.41-134.57,4.37-165,55.78-37,62.59-6,144.53,44,184.55,30.76,24.64,72.44,35.27,117.31,29.91,52.59-6.27,102-33.3,132.17-72.31,64.57-83.49,30.28-210.61-40.89-272.49-38.86-33.79-91.24-49.25-151.44-44.67-79.51,6-160,46.42-210.07,105.42-64.31,75.77-79.27,185.75-40,294.18ZM427.68,286.6c-65.25,0-125.5,48.51-151.34,104.59-3.71,8.06-35.1,80.81,5.24,152.22,36,63.69,103.66,81.09,140.82,85.8,101.92,12.91,209.91-53,245.84-150,42.37-114.4-27.21-239.79-119-294.92-137.81-82.81-329.5-5.4-408.8,119.15C95.86,373.55,89.55,458.18,121.73,555c8.25,10.87,16.82,21.68,25.12,32.15l.14.18c-29-103-10.88-205,50.46-277.22,51.74-61,134.89-102.72,217-108.95,63-4.78,117.87,11.52,158.82,47.12,74.56,64.83,110.24,198.33,42.24,286.25-31.79,41.1-83.73,69.57-138.95,76.15-47.59,5.67-91.91-5.7-124.8-32C298.48,536,265.61,448.35,305.38,381.11c32.79-55.43,114.1-93.52,178.37-59.56,40.76,21.53,84.31,80.86,60.09,136.24-18.11,41.42-68.56,66.15-112.46,55.14-38.56-9.67-76.95-48.86-70.61-86.83,3.89-23.29,23.64-37,27.56-39.46,18-11.48,47.26-16.3,69,.23,14.75,11.21,26.44,32.58,19.61,47.56-5.68,12.47-20.75,15.25-32.86,17.49-4,.74-10,1.84-11.81,3,.37.81,1.78,3,5.67,5.8,6.06,4.3,16.53,8.55,26,6.33,7.62-1.77,14.84-7.95,20.34-17.4,8.68-14.94,11.32-34.63,6.7-50.16-9.55-32.11-49.66-48.31-81.13-43.32-38.64,6.14-63,44.07-66.25,76.64-4.93,48.89,37,92.59,79.29,102.73,28.87,6.93,61.78-1.26,90.26-22.48,31.58-23.52,51.59-58.53,53.53-93.65C570.11,358.05,516.13,306,462,291.21A129.42,129.42,0,0,0,427.68,286.6Z" transform="translate(-91.43 -140)" fill="#010101"/><g opacity="0.4"><g clip-path="url(#a)"><path d="M332.28,183c-17.68,1.9-34.14,7.79-51.19,12.37-4.5,1.21-11.65,2.33-18.32,4-38.52,24.28-84.46,58-96.54,86.82-21.77,52,0,27.8,0,27.8S271.44,213.54,302.88,199C315.73,193.09,328.6,187.17,342,182c-3.23.33-6.46.63-9.67,1" transform="translate(-91.43 -140)" fill="#fff"/></g></g><g opacity="0.63"><g clip-path="url(#b)"><path d="M610,696.27c0,7.35-76.88,13.3-171.71,13.3s-171.72-6-171.72-13.3S343.4,683,438.24,683,610,688.92,610,696.27" transform="translate(-91.43 -140)" fill="#010101"/></g></g></svg>